<mxfile host="Electron" agent="Mozilla/5.0 (X11; Linux x86_64) AppleWebKit/537.36 (KHTML, like Gecko) draw.io/28.1.2 Chrome/138.0.7204.243 Electron/37.4.0 Safari/537.36" version="28.1.2">
  <diagram name="Page-1" id="Ff5sGYlRXg9JFFb1_6-Y">
    <mxGraphModel dx="1426" dy="840" grid="1" gridSize="10" guides="1" tooltips="1" connect="1" arrows="1" fold="1" page="1" pageScale="1" pageWidth="827" pageHeight="1169" math="0" shadow="0">
      <root>
        <mxCell id="0" />
        <mxCell id="1" parent="0" />
        <mxCell id="xnennw4C9AwpIxYKHwxC-1" value="&lt;font style=&quot;font-size: 15px;&quot;&gt;&lt;b&gt;Client&lt;/b&gt;&lt;/font&gt;&lt;div&gt;&lt;font style=&quot;font-size: 10px;&quot;&gt;Web Mobile&lt;/font&gt;&lt;/div&gt;" style="rounded=1;whiteSpace=wrap;html=1;fontSize=13;" vertex="1" parent="1">
          <mxGeometry x="354" y="140" width="120" height="60" as="geometry" />
        </mxCell>
        <mxCell id="xnennw4C9AwpIxYKHwxC-2" value="&lt;font style=&quot;font-size: 15px;&quot;&gt;&lt;b&gt;Middleware&lt;/b&gt;&lt;/font&gt;&lt;div&gt;&lt;font style=&quot;font-size: 10px;&quot;&gt;API Node.js Express.js&lt;/font&gt;&lt;/div&gt;" style="rounded=1;whiteSpace=wrap;html=1;fontSize=13;" vertex="1" parent="1">
          <mxGeometry x="474" y="310" width="176" height="60" as="geometry" />
        </mxCell>
        <mxCell id="xnennw4C9AwpIxYKHwxC-4" value="&lt;font style=&quot;font-size: 15px;&quot;&gt;&lt;b&gt;Micro Service&lt;/b&gt;&lt;/font&gt;&amp;nbsp;&lt;div&gt;&lt;font style=&quot;font-size: 10px;&quot;&gt;Flask&lt;/font&gt;&lt;/div&gt;" style="rounded=1;whiteSpace=wrap;html=1;fontSize=13;" vertex="1" parent="1">
          <mxGeometry x="180" y="430" width="174" height="60" as="geometry" />
        </mxCell>
        <mxCell id="xnennw4C9AwpIxYKHwxC-5" value="&lt;font style=&quot;font-size: 15px;&quot;&gt;&lt;b&gt;Base de donnÃ©es&lt;/b&gt;&lt;/font&gt;&lt;div&gt;MySql&lt;/div&gt;" style="rounded=1;whiteSpace=wrap;html=1;fontSize=13;" vertex="1" parent="1">
          <mxGeometry x="341" y="600" width="199" height="60" as="geometry" />
        </mxCell>
        <mxCell id="xnennw4C9AwpIxYKHwxC-6" value="" style="endArrow=classic;startArrow=classic;html=1;rounded=0;exitX=0.903;exitY=1.017;exitDx=0;exitDy=0;exitPerimeter=0;entryX=0.363;entryY=0.017;entryDx=0;entryDy=0;entryPerimeter=0;fontSize=13;" edge="1" parent="1" source="xnennw4C9AwpIxYKHwxC-4" target="xnennw4C9AwpIxYKHwxC-5">
          <mxGeometry width="50" height="50" relative="1" as="geometry">
            <mxPoint x="390" y="460" as="sourcePoint" />
            <mxPoint x="440" y="410" as="targetPoint" />
          </mxGeometry>
        </mxCell>
        <mxCell id="xnennw4C9AwpIxYKHwxC-7" value="" style="endArrow=classic;startArrow=classic;html=1;rounded=0;exitX=0.671;exitY=-0.017;exitDx=0;exitDy=0;exitPerimeter=0;entryX=0.35;entryY=1.05;entryDx=0;entryDy=0;entryPerimeter=0;fontSize=13;" edge="1" parent="1" source="xnennw4C9AwpIxYKHwxC-5" target="xnennw4C9AwpIxYKHwxC-2">
          <mxGeometry width="50" height="50" relative="1" as="geometry">
            <mxPoint x="390" y="460" as="sourcePoint" />
            <mxPoint x="440" y="410" as="targetPoint" />
          </mxGeometry>
        </mxCell>
        <mxCell id="xnennw4C9AwpIxYKHwxC-9" value="" style="endArrow=classic;startArrow=classic;html=1;rounded=0;entryX=0;entryY=0.75;entryDx=0;entryDy=0;exitX=1;exitY=0;exitDx=0;exitDy=0;fontSize=13;" edge="1" parent="1" source="xnennw4C9AwpIxYKHwxC-4" target="xnennw4C9AwpIxYKHwxC-2">
          <mxGeometry width="50" height="50" relative="1" as="geometry">
            <mxPoint x="350" y="410" as="sourcePoint" />
            <mxPoint x="420" y="380" as="targetPoint" />
          </mxGeometry>
        </mxCell>
        <mxCell id="xnennw4C9AwpIxYKHwxC-11" value="" style="endArrow=classic;startArrow=classic;html=1;rounded=0;exitX=0.567;exitY=1.05;exitDx=0;exitDy=0;exitPerimeter=0;entryX=0.327;entryY=-0.067;entryDx=0;entryDy=0;entryPerimeter=0;fontSize=13;" edge="1" parent="1" source="xnennw4C9AwpIxYKHwxC-1" target="xnennw4C9AwpIxYKHwxC-2">
          <mxGeometry width="50" height="50" relative="1" as="geometry">
            <mxPoint x="530" y="260" as="sourcePoint" />
            <mxPoint x="550" y="300" as="targetPoint" />
          </mxGeometry>
        </mxCell>
      </root>
    </mxGraphModel>
  </diagram>
</mxfile>
